<svg xmlns="http://www.w3.org/2000/svg" viewBox="0 0 520.72 529.5"><defs><style>.cls-1{fill:#0d5a52;}</style></defs><g id="Слой_2" data-name="Слой 2"><g id="Слой_1-2" data-name="Слой 1"><polygon class="cls-1" points="342.97 296.47 328.97 316.47 362.97 352.47 328.97 408.88 345.97 408.88 390.41 352.67 342.97 296.47"/><polygon class="cls-1" points="179.97 35.45 99 106.01 99 134.97 157.97 83.58 157.97 161.49 99 212.88 99 242.1 157.97 190.71 157.97 242.69 179.97 242.69 179.97 35.45"/><polygon class="cls-1" points="414 153.58 458.69 192.53 458.69 219.97 480.72 219.97 480.72 183.34 391.97 106 391.97 301.97 414 301.97 414 153.58"/><polygon class="cls-1" points="372 47.58 416.69 86.53 416.69 113.97 438.72 113.97 438.72 77.33 349.97 0 349.97 113.97 372 113.97 372 47.58"/><polygon class="cls-1" points="221 204.58 254.41 233.69 286.98 233.69 198.97 157 198.97 233.69 221 233.69 221 204.58"/><polygon class="cls-1" points="221 55.58 254.41 84.69 286.98 84.69 198.97 8 198.97 84.69 221 84.69 221 55.58"/><polygon class="cls-1" points="219.92 366.02 219.81 437.3 234.99 437.3 247.53 341.7 219.92 366.02"/><polygon class="cls-1" points="81 290.9 139.97 342.29 139.97 313.07 81 261.69 81 187.43 0 258.01 0 286.97 58.97 235.58 58.97 313.49 0 364.88 0 394.1 58.97 342.71 58.97 437.3 81 437.3 81 290.9"/><polygon class="cls-1" points="454 261.92 498.69 300.86 498.69 437.3 520.72 437.3 520.72 291.67 431.97 214.34 431.97 437.3 454 437.3 454 261.92"/><path class="cls-1" d="M198,356.47l33-26h53l-.16,106.83H299l16-121.83,34-47L335.9,210l36.92-23.08V167.47H301.17a16.18,16.18,0,0,1-4-.48c-.72-.19-1.44-.37-2.15-.57a133.86,133.86,0,0,0,31.42-61.7h-22.6a111.81,111.81,0,0,1-31,53,111.9,111.9,0,0,1-16.39-10.51,133.94,133.94,0,0,0,25.29-42.47H258a112.16,112.16,0,0,1-17.53,27.36A112.12,112.12,0,0,1,223,104.72H199.18a133.64,133.64,0,0,0,102.45,85.71c3.68,113.35-157.66,69-157.66,69l47.54,43-24.18,35V437.3h13.22Z"/><rect class="cls-1" y="462.19" width="518.72" height="5"/><polygon class="cls-1" points="0.27 499.93 8.17 499.93 8.17 529.5 63.23 529.5 63.23 515.83 49.4 517.74 49.4 521.98 22 521.98 22 499.93 49.4 499.93 49.4 504.17 63.23 506.07 63.23 492.4 0.27 492.4 0.27 499.93"/><polygon class="cls-1" points="121.48 492.4 121.48 502.31 94.08 514.34 94.08 492.4 80.25 492.4 80.25 529.5 94.08 529.5 94.08 524.25 121.48 512.22 121.48 529.5 134.84 529.5 134.84 492.4 121.48 492.4"/><path class="cls-1" d="M509.39,511.59V492.4H454.32v18.23l16,2.71L452.15,529.5h19.13L486.39,516l9.16,1.54V529.5h13.84v-9.59l7.89,1.32v-8.32Zm-13.84-2.33-27.4-4.62v-4.71h27.4Z"/><path class="cls-1" d="M213.7,504.22V492.4H158.84v37.1H213.7V511.22l-41.23-7v-4.34h27.4v2.86Zm-13.83,13V522h-27.4v-9.38Z"/><polygon class="cls-1" points="288.96 506.07 288.96 492.4 233.84 492.4 233.84 499.93 233.9 499.93 233.9 529.5 288.96 529.5 288.96 515.83 275.13 517.74 275.13 521.98 247.73 521.98 247.73 514.71 270.25 514.71 270.25 507.19 247.73 507.19 247.73 499.93 275.13 499.93 275.13 504.17 288.96 506.07"/><path class="cls-1" d="M308.84,492.4v37.1H322.4v-11l41.24-6.94V492.4Zm41,13.2-27.4,4.61V499.93h27.4Z"/><polygon class="cls-1" points="420.82 492.4 420.82 502.31 393.42 514.34 393.42 492.4 379.59 492.4 379.59 529.5 393.42 529.5 393.42 524.25 420.82 512.22 420.82 529.5 433.84 529.5 433.84 492.4 420.82 492.4"/></g></g></svg>
